<?xml version="1.0" encoding="iso-8859-1"?>
<!-- Uploaded to: SVG Repo, www.svgrepo.com, Generator: SVG Repo Mixer Tools -->
<svg version="1.1" id="Layer_1" xmlns="http://www.w3.org/2000/svg" xmlns:xlink="http://www.w3.org/1999/xlink" 
	 viewBox="0 0 484.194 484.194" xml:space="preserve">
<g>
	<g>
		<g id="XMLID_35_">
			<g>
				<rect x="411.806" y="321.96" style="fill:#878D92;" width="64.889" height="79.863"/>
				<rect x="7.5" y="321.96" style="fill:#878D92;" width="64.889" height="79.863"/>
				<rect x="7.5" y="162.234" style="fill:#878D92;" width="64.889" height="79.863"/>
				<rect x="411.806" y="162.234" style="fill:#878D92;" width="64.889" height="79.863"/>
				<rect x="411.806" y="7.5" style="fill:#878D92;" width="64.889" height="74.871"/>
				<rect x="7.5" y="7.5" style="fill:#878D92;" width="64.889" height="74.871"/>
				<rect x="411.806" y="401.823" style="fill:#AFB6BB;" width="64.889" height="74.871"/>
				<rect x="7.5" y="401.823" style="fill:#AFB6BB;" width="64.889" height="74.871"/>
				<rect x="7.5" y="242.097" style="fill:#AFB6BB;" width="64.889" height="79.863"/>
				<rect x="411.806" y="242.097" style="fill:#AFB6BB;" width="64.889" height="79.863"/>
				<rect x="411.806" y="82.371" style="fill:#AFB6BB;" width="64.889" height="79.863"/>
				<rect x="7.5" y="82.371" style="fill:#AFB6BB;" width="64.889" height="79.863"/>
				<polygon style="fill:#AFB6BB;" points="311.977,237.106 192.183,297.003 192.183,177.209 				"/>
				<path style="fill:#E7ECED;" d="M411.806,401.823v74.871H72.389v-74.871V321.96v-79.863v-79.863V82.371V7.5h339.417v74.871
					v79.863v79.863v79.863V401.823z M192.183,297.003l119.794-59.897l-119.794-59.897L192.183,297.003L192.183,297.003z"/>
			</g>
			<g>
				<path style="fill:#231F20;" d="M0,0v484.194h484.194V0H0z M469.194,74.872h-49.889V15h49.889V74.872z M64.889,154.734H15V89.872
					h49.889V154.734z M64.889,169.734v64.863H15v-64.863L64.889,169.734L64.889,169.734z M64.889,249.597v64.863H15v-64.863
					L64.889,249.597L64.889,249.597z M64.889,329.46v64.863H15V329.46H64.889z M79.889,15h324.417v454.194H79.889V15z
					 M419.306,329.46h49.889v64.863h-49.889V329.46z M419.306,314.46v-64.863h49.889v64.863H419.306z M419.306,234.597v-64.863
					h49.889v64.863L419.306,234.597L419.306,234.597z M419.306,154.734V89.872h49.889v64.863h-49.889V154.734z M64.889,15v59.872H15
					V15H64.889z M15,409.323h49.889v59.872H15V409.323z M419.306,469.194v-59.872h49.889v59.872H419.306z"/>
				<path style="fill:#231F20;" d="M184.683,165.073v144.065l144.065-72.032L184.683,165.073z M199.683,189.344l95.524,47.762
					l-95.524,47.762V189.344z"/>
			</g>
		</g>
	</g>
</g>
</svg>