<?xml version="1.0" encoding="utf-8"?>

<!DOCTYPE svg PUBLIC "-//W3C//DTD SVG 1.1//EN" "http://www.w3.org/Graphics/SVG/1.1/DTD/svg11.dtd">
<!-- Uploaded to: SVG Repo, www.svgrepo.com, Generator: SVG Repo Mixer Tools -->
<svg version="1.1" id="_x32_" xmlns="http://www.w3.org/2000/svg" xmlns:xlink="http://www.w3.org/1999/xlink" 
	 viewBox="0 0 512 512"  xml:space="preserve">
<style type="text/css">
	.st0{fill:#000000;}
</style>
<g>
	<rect x="424" y="24" class="st0" width="48" height="52"/>
	<rect x="424" y="188" class="st0" width="48" height="300"/>
	<path class="st0" d="M484.79,100h-73.578C396.188,100,384,112.188,384,127.211v9.578c0,15.023,12.188,27.21,27.211,27.21h73.578
		c15.023,0,27.21-12.187,27.21-27.21v-9.578C512,112.188,499.813,100,484.79,100z"/>
	<rect x="231.985" y="24" class="st0" width="48" height="276.641"/>
	<rect x="231.985" y="412.641" class="st0" width="48" height="75.359"/>
	<path class="st0" d="M292.774,324.641h-73.578c-15.023,0-27.21,12.187-27.21,27.211v9.578c0,15.024,12.187,27.211,27.21,27.211
		h73.578c15.023,0,27.211-12.187,27.211-27.211v-9.578C319.985,336.828,307.797,324.641,292.774,324.641z"/>
	<rect x="40" y="308" class="st0" width="48" height="180"/>
	<rect x="40" y="24" class="st0" width="48" height="172"/>
	<path class="st0" d="M100.79,220H27.211C12.188,220,0,232.188,0,247.211v9.578C0,271.813,12.188,284,27.211,284h73.578
		c15.023,0,27.21-12.187,27.21-27.21v-9.578C128,232.188,115.813,220,100.79,220z"/>
</g>
</svg>